<svg xmlns="http://www.w3.org/2000/svg" width="22" height="19" viewBox="0 0 22 19"><path d="M9 8v10c0 .55.45 1 1 1h9c.55 0 1-.45 1-1V8H9zm3 9h-1v-7h1v7zm2 0h-1v-7h1v7zm2 0h-1v-7h1v7zm2 0h-1v-7h1v7zM20.753 5.34l-2.97-1.323.51-1.142c.167-.376-.004-.823-.38-.99L14.714.46c-.377-.166-.823.005-.99.38l-.51 1.143L10.248.66c-.377-.167-.822.004-.99.38l-.51 1.143L20.626 7.47l.508-1.14c.168-.378-.004-.824-.38-.99zM16.87 3.61l-2.74-1.22.4-.902 2.742 1.22-.402.902z"/><path d="M11.366 7.08c.143.28.018.284-.467-.102C9.39 5.78 7.37 5.57 5.814 8.813l2.434 1.24-5.538 1.765L.885 6.3l2.382 1.215c2.45-5.14 6.652-3.936 8.1-.436z"/></svg>
