<svg width="9" height="16" xmlns="http://www.w3.org/2000/svg" fill="currentColor"><path d="M9 10.58c0 1.822-1.41 3.26-3.457 3.572v1.562c0 .16-.135.286-.309.286H3.931c-.164 0-.309-.125-.309-.286v-1.562C1.362 13.857.127 12.607.08 12.554a.279.279 0 01-.02-.367l.995-1.205a.323.323 0 01.222-.107.276.276 0 01.232.08c.019.01 1.37 1.206 3.08 1.206.945 0 1.969-.464 1.969-1.473 0-.857-1.14-1.277-2.443-1.76-1.738-.633-3.9-1.437-3.9-3.678 0-1.643 1.39-3 3.408-3.357V.286c0-.16.145-.286.31-.286h1.302c.174 0 .31.125.31.286v1.571c1.96.205 3.002 1.188 3.04 1.224.097.098.116.232.049.34L7.85 4.723a.286.286 0 01-.222.142.34.34 0 01-.261-.062c-.01-.009-1.178-.964-2.626-.964-1.226 0-2.076.562-2.076 1.375 0 .946 1.178 1.366 2.55 1.857C6.991 7.706 9 8.43 9 10.582v-.002z" fill-rule="nonzero"/></svg>
