<svg xmlns="http://www.w3.org/2000/svg" width="15" height="16" viewBox="0 0 15 16"><path d="M11.429 12c0-0.313-0.259-0.571-0.571-0.571s-0.571 0.259-0.571 0.571 0.259 0.571 0.571 0.571 0.571-0.259 0.571-0.571zM13.714 12c0-0.313-0.259-0.571-0.571-0.571s-0.571 0.259-0.571 0.571 0.259 0.571 0.571 0.571 0.571-0.259 0.571-0.571zM14.857 10v2.857c0 0.473-0.384 0.857-0.857 0.857h-13.143c-0.473 0-0.857-0.384-0.857-0.857v-2.857c0-0.473 0.384-0.857 0.857-0.857h4.152l1.205 1.214c0.33 0.321 0.759 0.5 1.214 0.5s0.884-0.179 1.214-0.5l1.214-1.214h4.143c0.473 0 0.857 0.384 0.857 0.857zM11.955 4.92c0.089 0.214 0.045 0.464-0.125 0.625l-4 4c-0.107 0.116-0.259 0.17-0.402 0.17s-0.295-0.054-0.402-0.17l-4-4c-0.17-0.161-0.214-0.411-0.125-0.625 0.089-0.205 0.295-0.348 0.527-0.348h2.286v-4c0-0.313 0.259-0.571 0.571-0.571h2.286c0.313 0 0.571 0.259 0.571 0.571v4h2.286c0.232 0 0.438 0.143 0.527 0.348z"></path></svg>
