<svg width="17px" height="11px" viewBox="0 0 17 11" xmlns="http://www.w3.org/2000/svg">
    <g id="Components" stroke="none" stroke-width="1" fill="none" fill-rule="evenodd">
        <g id="Forms-&amp;-Buttons" transform="translate(-174.000000, -111.000000)">
            <g id="form-dirty" transform="translate(174.000000, 111.000000)">
                <path d="M15.7318957,4.0688043 C15.4198762,3.7567848 14.9134445,3.7567848 14.600625,4.0688043 L12.7661104,5.90331893 L12.7661104,-0.165860316 C12.7661104,-0.607487913 12.408488,-0.96591031 11.9660604,-0.96591031 C11.5236327,-0.96591031 11.1660104,-0.607487913 11.1660104,-0.165860316 L11.1660104,5.90331893 L9.33149574,4.0688043 C9.01947624,3.7567848 8.5130446,3.7567848 8.20022505,4.0688043 C7.8874055,4.3808238 7.88820555,4.88725544 8.20022505,5.20007499 L11.9660604,8.96591031 L15.7318957,5.20007499 C16.0439152,4.88805549 16.0439152,4.38162385 15.7318957,4.0688043 L15.7318957,4.0688043 Z" id="Shape" fill="#A9A9A9" transform="translate(11.965910, 4.000000) rotate(-90.000000) translate(-11.965910, -4.000000) "></path>
                <path d="M8.73189569,7.0688043 C8.41987619,6.7567848 7.91344454,6.7567848 7.600625,7.0688043 L5.76611036,8.90331893 L5.76611036,2.83413968 C5.76611036,2.39251209 5.40848801,2.03408969 4.96606037,2.03408969 C4.52363272,2.03408969 4.16601037,2.39251209 4.16601037,2.83413968 L4.16601037,8.90331893 L2.33149574,7.0688043 C2.01947624,6.7567848 1.5130446,6.7567848 1.20022505,7.0688043 C0.8874055,7.3808238 0.88820555,7.88725544 1.20022505,8.20007499 L4.96606037,11.9659103 L8.73189569,8.20007499 C9.04391518,7.88805549 9.04391518,7.38162385 8.73189569,7.0688043 L8.73189569,7.0688043 Z" id="Shape-Copy-2" fill="#7D7D7D" transform="translate(4.965910, 7.000000) rotate(-270.000000) translate(-4.965910, -7.000000) "></path>
            </g>
        </g>
    </g>
</svg>
