<svg width="12" height="16" viewBox="0 0 12 16" xmlns="http://www.w3.org/2000/svg" fill="currentColor"><path d="M3.333 7.238h5.334v-2c0-.736-.26-1.364-.782-1.885-.52-.52-1.15-.782-1.885-.782-.736 0-1.365.262-1.885.783-.52.52-.782 1.15-.782 1.885v2zm8.667 1v6c0 .278-.097.514-.292.708-.194.195-.43.292-.708.292H1c-.278 0-.514-.097-.708-.292-.195-.194-.292-.43-.292-.708v-6c0-.278.097-.514.292-.708.194-.195.43-.292.708-.292h.333v-2c0-1.278.46-2.375 1.375-3.292C3.625 1.03 4.722.57 6 .57s2.375.46 3.292 1.376c.916.917 1.375 2.014 1.375 3.292v2H11c.278 0 .514.097.708.292.195.194.292.43.292.708z"/></svg>
