<svg width="18" height="15" viewBox="0 0 18 15" xmlns="http://www.w3.org/2000/svg" fill="currentColor"><path d="M9.418 4.06h1.214v3.416l2.846 1.707-.607.987L9.42 8.083V4.06zM10.214 0c2 0 3.713.708 5.142 2.125 1.43 1.417 2.145 3.137 2.144 5.16 0 2.025-.715 3.745-2.144 5.16-1.428 1.418-3.142 2.126-5.142 2.126-2 0-3.707-.707-5.122-2.124L6.23 11.27c1.113 1.114 2.44 1.67 3.984 1.67 1.57 0 2.91-.55 4.023-1.65 1.113-1.1 1.67-2.435 1.67-4.003 0-1.57-.557-2.903-1.67-4.004-1.114-1.1-2.454-1.65-4.023-1.65-1.568 0-2.902.55-4.003 1.65-1.1 1.1-1.65 2.435-1.65 4.004h2.43L3.725 10.55l-.076-.114L.5 7.286h2.43c0-2.024.713-3.744 2.142-5.16C6.502.707 8.215 0 10.214 0z"/></svg>
