<svg xmlns="http://www.w3.org/2000/svg" width="13" height="15" viewBox="0 0 13 15" fill="currentColor"><g fill-rule="evenodd"><path d="M4.643 5.57l4.643 3.25-4.643 3.25"/><path d="M12.388 3.324c-.323-.44-.772-.953-1.265-1.447-.493-.493-1.007-.942-1.447-1.265C8.928.064 8.566 0 8.356 0H1.162C.52 0 0 .52 0 1.16v12.536c0 .64.52 1.16 1.16 1.16h10.68c.64 0 1.16-.52 1.16-1.16V4.643c0-.208-.064-.57-.612-1.32zm-1.922-.79c.446.445.795.847 1.053 1.18H9.285V1.48c.333.26.735.608 1.18 1.054zm1.605 11.162c0 .126-.105.233-.23.233H1.16c-.125 0-.23-.108-.23-.234V1.16c0-.125.105-.23.23-.23h7.197v3.25c0 .255.208.463.464.463h3.25v9.053z"/></g></svg>
