<svg xmlns="http://www.w3.org/2000/svg" viewBox="0 0 13.8 16.3"><path d="M1.9 4.1c1.3.5 3.1.8 5 .8s3.7-.3 5-.8c1.2-.5 1.9-1.1 1.9-1.6 0-.6-.7-1.2-1.9-1.6-1.3-.6-3.1-.9-5-.9s-3.7.3-5 .8C.7 1.3 0 1.9 0 2.4c0 .6.7 1.2 1.9 1.7zM0 10.6v3.5c0 .5.7 1 1.9 1.5 1.3.5 3.1.7 5 .7s3.7-.3 5-.7c1.2-.4 1.9-1 1.9-1.5v-3.5c-1.4 1-4.2 1.6-6.9 1.6s-5.5-.6-6.9-1.6zm8.6 3.5c0 .2-.2.4-.4.4H5.7c-.2 0-.4-.2-.4-.4s.2-.4.4-.4h2.4c.3 0 .5.1.5.4zM0 4.9v3.5c0 .5.7 1 1.9 1.5 1.3.5 3.1.7 5 .7s3.7-.3 5-.7c1.2-.4 1.9-1 1.9-1.5V4.9c-1.4 1-4.2 1.6-6.9 1.6S1.4 5.9 0 4.9zm8.6 3.5c0 .2-.2.4-.4.4H5.7c-.2 0-.4-.2-.4-.4s.2-.4.4-.4h2.4c.3 0 .5.2.5.4z"/></svg>