<svg width="24px" height="24px" viewBox="0 0 24 24" xmlns="http://www.w3.org/2000/svg"><path d="M10.9999987,15 L9.99999867,15 L9.99999867,15 C6.65670945,14.9987236 3.5882888,16.8510207 2.032,19.81 C2.01053659,19.5405347 1.99999867,19.2703187 1.99999867,19 C1.99999867,13.477 6.477,9 11.9999987,9 L11.9999987,5.9907062 C11.9999987,5.43842145 12.4477139,4.9907062 12.9999987,4.9907062 C13.2150925,4.9907062 13.4244539,5.06005961 13.5970094,5.18847295 L21.6719989,11.1977667 C22.1150601,11.5274867 22.2069414,12.1539495 21.8772215,12.5970107 C21.8191576,12.675034 21.7500222,12.7441694 21.6719989,12.8022333 L13.5970094,18.8115271 C13.1539482,19.141247 12.5274853,19.0493657 12.1977654,18.6063045 C12.0693521,18.4337491 11.9999987,18.2243877 11.9999987,18.0092938 L11.9999987,16 C11.9999987,15.4477153 11.5522834,15 10.9999987,15 Z M10,13 L14,13 L14,16.308 L19.321,12 L14,7.692 L14,11 L12,11 C9.67334603,10.997386 7.46135837,12.0100725 5.943,13.773 C7.23431818,13.2612188 8.61096383,12.9989198 10,13 Z"></path></svg>