<?xml version="1.0" encoding="utf-8"?>
<!-- Generator: Adobe Illustrator 25.0.0, SVG Export Plug-In . SVG Version: 6.00 Build 0)  -->
<svg version="1.1" id="Layer_1" xmlns="http://www.w3.org/2000/svg" xmlns:xlink="http://www.w3.org/1999/xlink" x="0px" y="0px"
	 viewBox="0 0 13.8 14" style="enable-background:new 0 0 13.8 14;" xml:space="preserve">
<path d="M3,13.9c-0.2,0-0.3-0.1-0.4-0.2c-0.1-0.1-0.2-0.3-0.1-0.5l0.7-4.3l-2.9-3C0.1,5.8,0,5.6,0.1,5.4C0.2,5.2,0.3,5,0.5,5l4-0.6
	l1.8-3.9c0.1-0.2,0.3-0.3,0.5-0.3s0.4,0.1,0.5,0.3l1.8,3.9l4,0.6c0.2,0,0.4,0.2,0.5,0.4c0.1,0.2,0,0.4-0.1,0.6l-2.9,3l0.7,4.3
	c0,0.2-0.1,0.4-0.2,0.6s-0.4,0.1-0.6,0l-3.6-2l-3.6,2C3.2,13.8,3.1,13.9,3,13.9z"/>
</svg>
