<svg width="13" height="16" viewBox="0 0 13 16" xmlns="http://www.w3.org/2000/svg"><path d="M3.183 1.946A4.596 4.596 0 016.513.57c1.278 0 2.375.46 3.292 1.376.916.917 1.375 2.014 1.375 3.292v2h.333a.96.96 0 01.708.292.96.96 0 01.292.708v6a.96.96 0 01-.292.708.96.96 0 01-.708.292h-10a.96.96 0 01-.708-.292.96.96 0 01-.292-.708v-6a.96.96 0 01.292-.708.96.96 0 01.708-.292l.333.001 7.334-.001v-2c0-.736-.26-1.364-.782-1.885a2.573 2.573 0 00-1.885-.782c-.736 0-1.365.262-1.885.783a3.55 3.55 0 00-.14.153L2.182 3.48c.261-.62.595-1.131 1-1.534z"/></svg>
